<svg width="120" height="120" viewBox="0 0 120 120" fill="none" xmlns="http://www.w3.org/2000/svg">
<path opacity="0.5" d="M47.2008 57.5998C50.3008 49.8998 57.4008 44.7998 65.9008 43.0998L63.6008 20.5998C63.6008 20.2998 63.2008 20.0998 62.9008 20.1998L13.4008 39.1998C13.2008 39.2998 13.0008 39.5998 13.1008 39.7998L24.8008 82.7998C24.9008 83.1998 25.4008 83.2998 25.7008 82.9998L34.0008 71.1998C34.1008 71.0998 34.1008 71.0998 34.2008 70.9998L45.6008 66.1998C45.6008 63.3998 46.1008 60.3998 47.2008 57.5998Z" fill="#E5E5E5"/>
<path opacity="0.5" d="M85.9 45.1002C79.1 42.4002 72.1 41.9002 65.9 43.1002C57.4 44.8002 50.3 50.0002 47.2 57.6002C46.1 60.4002 45.6 63.3002 45.7 66.2002C45.8 72.4002 48.5 78.6002 53.2 83.6002L49.4 98.0002C49.3 98.4002 49.7 98.7002 50.1 98.6002L65.5 92.6002C66 92.8002 66.5 93.1002 66.7 93.1002C82.7 99.5002 100 93.8002 105.4 80.6002C110.6 67.5002 101.9 51.5002 85.9 45.1002ZM60.5 70.9002C58.3 70.9002 56.3 69.2002 56.3 66.7002C56.3 64.5002 58 62.5002 60.5 62.5002C62.7 62.5002 64.7 64.2002 64.7 66.7002C64.5 68.9002 62.7 70.9002 60.5 70.9002ZM76.3 73.6002C74.1 73.6002 72.1 71.9002 72.1 69.4002C72.1 67.2002 73.8 65.2002 76.3 65.2002C78.8 65.2002 80.5 66.9002 80.5 69.4002C80.5 71.6002 78.5 73.6002 76.3 73.6002ZM91.6 76.8002C89.4 76.8002 87.4 75.1002 87.4 72.6002C87.4 70.4002 89.1 68.4002 91.6 68.4002C93.8 68.4002 95.8 70.1002 95.8 72.6002C95.8 74.8002 94.1 76.8002 91.6 76.8002Z" fill="#999999"/>
</svg>
